<mxfile host="app.diagrams.net" agent="Mozilla/5.0 (Windows NT 10.0; Win64; x64) AppleWebKit/537.36 (KHTML, like Gecko) Chrome/131.0.0.0 Safari/537.36" version="24.9.1" pages="2">
  <diagram id="TfUInaFqhqWwPeOq_RvC" name="current">
    <mxGraphModel dx="1674" dy="738" grid="1" gridSize="10" guides="1" tooltips="1" connect="1" arrows="1" fold="1" page="1" pageScale="1" pageWidth="1169" pageHeight="827" math="0" shadow="0">
      <root>
        <mxCell id="0" />
        <mxCell id="1" parent="0" />
        <mxCell id="lUdV249O_pMPiYJQVt7h-1" style="edgeStyle=orthogonalEdgeStyle;rounded=0;orthogonalLoop=1;jettySize=auto;html=1;" edge="1" parent="1" target="lUdV249O_pMPiYJQVt7h-6">
          <mxGeometry relative="1" as="geometry">
            <mxPoint x="237" y="250" as="sourcePoint" />
          </mxGeometry>
        </mxCell>
        <mxCell id="lUdV249O_pMPiYJQVt7h-2" style="edgeStyle=orthogonalEdgeStyle;rounded=0;orthogonalLoop=1;jettySize=auto;html=1;" edge="1" parent="1" source="lUdV249O_pMPiYJQVt7h-3">
          <mxGeometry relative="1" as="geometry">
            <mxPoint x="204" y="280" as="targetPoint" />
          </mxGeometry>
        </mxCell>
        <mxCell id="lUdV249O_pMPiYJQVt7h-3" value="" style="image;aspect=fixed;html=1;points=[];align=center;fontSize=12;image=img/lib/azure2/storage/Storage_Accounts.svg;" vertex="1" parent="1">
          <mxGeometry x="171" y="414" width="65" height="52" as="geometry" />
        </mxCell>
        <mxCell id="lUdV249O_pMPiYJQVt7h-4" value="" style="sketch=0;aspect=fixed;pointerEvents=1;shadow=0;dashed=0;html=1;strokeColor=none;labelPosition=center;verticalLabelPosition=bottom;verticalAlign=top;align=center;fillColor=#00188D;shape=mxgraph.azure.code_file" vertex="1" parent="1">
          <mxGeometry x="210" y="460" width="47" height="50" as="geometry" />
        </mxCell>
        <mxCell id="lUdV249O_pMPiYJQVt7h-5" style="edgeStyle=orthogonalEdgeStyle;rounded=0;orthogonalLoop=1;jettySize=auto;html=1;" edge="1" parent="1" source="lUdV249O_pMPiYJQVt7h-6" target="lUdV249O_pMPiYJQVt7h-7">
          <mxGeometry relative="1" as="geometry" />
        </mxCell>
        <mxCell id="lUdV249O_pMPiYJQVt7h-6" value="" style="image;aspect=fixed;html=1;points=[];align=center;fontSize=12;image=img/lib/azure2/iot/Logic_Apps.svg;" vertex="1" parent="1">
          <mxGeometry x="348" y="224" width="67" height="52" as="geometry" />
        </mxCell>
        <mxCell id="lUdV249O_pMPiYJQVt7h-7" value="" style="image;aspect=fixed;html=1;points=[];align=center;fontSize=12;image=img/lib/azure2/integration/Service_Bus.svg;" vertex="1" parent="1">
          <mxGeometry x="531" y="220" width="68" height="60" as="geometry" />
        </mxCell>
        <mxCell id="lUdV249O_pMPiYJQVt7h-8" style="edgeStyle=orthogonalEdgeStyle;rounded=0;orthogonalLoop=1;jettySize=auto;html=1;" edge="1" parent="1" source="lUdV249O_pMPiYJQVt7h-9" target="lUdV249O_pMPiYJQVt7h-10">
          <mxGeometry relative="1" as="geometry" />
        </mxCell>
        <mxCell id="lUdV249O_pMPiYJQVt7h-9" value="" style="image;aspect=fixed;html=1;points=[];align=center;fontSize=12;image=img/lib/azure2/iot/Logic_Apps.svg;" vertex="1" parent="1">
          <mxGeometry x="674" y="377" width="67" height="52" as="geometry" />
        </mxCell>
        <mxCell id="lUdV249O_pMPiYJQVt7h-10" value="" style="image;sketch=0;aspect=fixed;html=1;points=[];align=center;fontSize=12;image=img/lib/mscae/CosmosDB.svg;" vertex="1" parent="1">
          <mxGeometry x="682.5" y="532" width="50" height="50" as="geometry" />
        </mxCell>
        <mxCell id="lUdV249O_pMPiYJQVt7h-11" value="" style="verticalLabelPosition=bottom;html=1;verticalAlign=top;align=center;strokeColor=none;fillColor=#00BEF2;shape=mxgraph.azure.user;" vertex="1" parent="1">
          <mxGeometry x="30" y="416" width="47.5" height="50" as="geometry" />
        </mxCell>
        <mxCell id="lUdV249O_pMPiYJQVt7h-12" style="edgeStyle=orthogonalEdgeStyle;rounded=0;orthogonalLoop=1;jettySize=auto;html=1;entryX=0.004;entryY=0.538;entryDx=0;entryDy=0;entryPerimeter=0;" edge="1" parent="1" source="lUdV249O_pMPiYJQVt7h-11" target="lUdV249O_pMPiYJQVt7h-3">
          <mxGeometry relative="1" as="geometry" />
        </mxCell>
        <mxCell id="lUdV249O_pMPiYJQVt7h-13" style="edgeStyle=orthogonalEdgeStyle;rounded=0;orthogonalLoop=1;jettySize=auto;html=1;entryX=0.502;entryY=0.017;entryDx=0;entryDy=0;entryPerimeter=0;" edge="1" parent="1" source="lUdV249O_pMPiYJQVt7h-7" target="lUdV249O_pMPiYJQVt7h-9">
          <mxGeometry relative="1" as="geometry">
            <mxPoint x="720" y="330" as="targetPoint" />
            <Array as="points">
              <mxPoint x="708" y="250" />
              <mxPoint x="708" y="350" />
            </Array>
          </mxGeometry>
        </mxCell>
        <mxCell id="lUdV249O_pMPiYJQVt7h-14" style="edgeStyle=orthogonalEdgeStyle;rounded=0;orthogonalLoop=1;jettySize=auto;html=1;exitX=0.526;exitY=1.013;exitDx=0;exitDy=0;exitPerimeter=0;" edge="1" parent="1" source="lUdV249O_pMPiYJQVt7h-6" target="lUdV249O_pMPiYJQVt7h-3">
          <mxGeometry relative="1" as="geometry">
            <Array as="points">
              <mxPoint x="383" y="440" />
            </Array>
            <mxPoint x="345" y="250.0526315789475" as="sourcePoint" />
            <mxPoint x="360" y="470" as="targetPoint" />
          </mxGeometry>
        </mxCell>
        <mxCell id="lUdV249O_pMPiYJQVt7h-15" value="1" style="ellipse;whiteSpace=wrap;html=1;aspect=fixed;" vertex="1" parent="1">
          <mxGeometry x="101" y="423" width="40" height="40" as="geometry" />
        </mxCell>
        <mxCell id="lUdV249O_pMPiYJQVt7h-16" value="2" style="ellipse;whiteSpace=wrap;html=1;aspect=fixed;" vertex="1" parent="1">
          <mxGeometry x="183.5" y="340" width="40" height="40" as="geometry" />
        </mxCell>
        <mxCell id="lUdV249O_pMPiYJQVt7h-17" value="3" style="ellipse;whiteSpace=wrap;html=1;aspect=fixed;" vertex="1" parent="1">
          <mxGeometry x="271" y="228" width="40" height="40" as="geometry" />
        </mxCell>
        <mxCell id="lUdV249O_pMPiYJQVt7h-18" value="4" style="ellipse;whiteSpace=wrap;html=1;aspect=fixed;" vertex="1" parent="1">
          <mxGeometry x="364" y="337" width="40" height="40" as="geometry" />
        </mxCell>
        <mxCell id="lUdV249O_pMPiYJQVt7h-19" value="5" style="ellipse;whiteSpace=wrap;html=1;aspect=fixed;" vertex="1" parent="1">
          <mxGeometry x="450" y="229" width="40" height="40" as="geometry" />
        </mxCell>
        <mxCell id="lUdV249O_pMPiYJQVt7h-20" value="6" style="ellipse;whiteSpace=wrap;html=1;aspect=fixed;" vertex="1" parent="1">
          <mxGeometry x="687.5" y="307" width="40" height="40" as="geometry" />
        </mxCell>
        <mxCell id="lUdV249O_pMPiYJQVt7h-21" value="7" style="ellipse;whiteSpace=wrap;html=1;aspect=fixed;" vertex="1" parent="1">
          <mxGeometry x="688.5" y="463" width="39" height="40" as="geometry" />
        </mxCell>
        <mxCell id="lUdV249O_pMPiYJQVt7h-27" value="" style="image;aspect=fixed;html=1;points=[];align=center;fontSize=12;image=img/lib/azure2/integration/Event_Grid_Topics.svg;" vertex="1" parent="1">
          <mxGeometry x="170" y="220" width="67" height="60" as="geometry" />
        </mxCell>
        <mxCell id="lUdV249O_pMPiYJQVt7h-29" value="" style="image;aspect=fixed;html=1;points=[];align=center;fontSize=12;image=img/lib/azure2/compute/Function_Apps.svg;" vertex="1" parent="1">
          <mxGeometry x="820" y="527" width="65.73" height="58" as="geometry" />
        </mxCell>
        <mxCell id="lUdV249O_pMPiYJQVt7h-30" value="" style="image;aspect=fixed;html=1;points=[];align=center;fontSize=12;image=img/lib/azure2/compute/Function_Apps.svg;" vertex="1" parent="1">
          <mxGeometry x="1096" y="529" width="65.73" height="58" as="geometry" />
        </mxCell>
        <mxCell id="lUdV249O_pMPiYJQVt7h-31" value="" style="image;aspect=fixed;html=1;points=[];align=center;fontSize=12;image=img/lib/azure2/app_services/API_Management_Services.svg;" vertex="1" parent="1">
          <mxGeometry x="1096" y="377" width="65" height="60" as="geometry" />
        </mxCell>
        <mxCell id="lUdV249O_pMPiYJQVt7h-32" style="edgeStyle=orthogonalEdgeStyle;rounded=0;orthogonalLoop=1;jettySize=auto;html=1;entryX=-0.014;entryY=0.475;entryDx=0;entryDy=0;entryPerimeter=0;exitX=0.984;exitY=0.431;exitDx=0;exitDy=0;exitPerimeter=0;" edge="1" parent="1" source="lUdV249O_pMPiYJQVt7h-10" target="lUdV249O_pMPiYJQVt7h-29">
          <mxGeometry relative="1" as="geometry">
            <mxPoint x="717" y="439" as="sourcePoint" />
            <mxPoint x="717" y="542" as="targetPoint" />
          </mxGeometry>
        </mxCell>
        <mxCell id="lUdV249O_pMPiYJQVt7h-33" style="edgeStyle=orthogonalEdgeStyle;rounded=0;orthogonalLoop=1;jettySize=auto;html=1;entryX=0.015;entryY=0.479;entryDx=0;entryDy=0;entryPerimeter=0;" edge="1" parent="1" source="lUdV249O_pMPiYJQVt7h-29" target="lUdV249O_pMPiYJQVt7h-30">
          <mxGeometry relative="1" as="geometry">
            <mxPoint x="885.73" y="556.26" as="sourcePoint" />
            <mxPoint x="970" y="560" as="targetPoint" />
          </mxGeometry>
        </mxCell>
        <mxCell id="lUdV249O_pMPiYJQVt7h-34" style="edgeStyle=orthogonalEdgeStyle;rounded=0;orthogonalLoop=1;jettySize=auto;html=1;exitX=0.521;exitY=-0.006;exitDx=0;exitDy=0;exitPerimeter=0;entryX=0.516;entryY=0.966;entryDx=0;entryDy=0;entryPerimeter=0;" edge="1" parent="1" source="lUdV249O_pMPiYJQVt7h-30" target="lUdV249O_pMPiYJQVt7h-31">
          <mxGeometry relative="1" as="geometry">
            <mxPoint x="996" y="567" as="sourcePoint" />
            <mxPoint x="1100" y="471" as="targetPoint" />
            <Array as="points">
              <mxPoint x="1130" y="470" />
              <mxPoint x="1129" y="470" />
            </Array>
          </mxGeometry>
        </mxCell>
        <mxCell id="lUdV249O_pMPiYJQVt7h-35" value="8" style="ellipse;whiteSpace=wrap;html=1;aspect=fixed;" vertex="1" parent="1">
          <mxGeometry x="757" y="534" width="39" height="40" as="geometry" />
        </mxCell>
        <mxCell id="lUdV249O_pMPiYJQVt7h-36" value="9" style="ellipse;whiteSpace=wrap;html=1;aspect=fixed;" vertex="1" parent="1">
          <mxGeometry x="904" y="535" width="39" height="40" as="geometry" />
        </mxCell>
        <mxCell id="lUdV249O_pMPiYJQVt7h-37" value="11" style="ellipse;whiteSpace=wrap;html=1;aspect=fixed;" vertex="1" parent="1">
          <mxGeometry x="1111" y="470" width="39" height="40" as="geometry" />
        </mxCell>
        <mxCell id="lUdV249O_pMPiYJQVt7h-38" value="" style="image;aspect=fixed;html=1;points=[];align=center;fontSize=12;image=img/lib/azure2/integration/Service_Bus.svg;" vertex="1" parent="1">
          <mxGeometry x="954" y="531" width="56.67" height="50" as="geometry" />
        </mxCell>
        <mxCell id="lUdV249O_pMPiYJQVt7h-39" value="10" style="ellipse;whiteSpace=wrap;html=1;aspect=fixed;" vertex="1" parent="1">
          <mxGeometry x="1026" y="536" width="39" height="40" as="geometry" />
        </mxCell>
      </root>
    </mxGraphModel>
  </diagram>
  <diagram name="old" id="RlBopf_etXF0FrXeS8fW">
    <mxGraphModel dx="1674" dy="738" grid="1" gridSize="10" guides="1" tooltips="1" connect="1" arrows="1" fold="1" page="1" pageScale="1" pageWidth="1169" pageHeight="827" math="0" shadow="0">
      <root>
        <mxCell id="0" />
        <mxCell id="1" parent="0" />
        <mxCell id="BwdnBw9OFmGujha4lRiC-10" style="edgeStyle=orthogonalEdgeStyle;rounded=0;orthogonalLoop=1;jettySize=auto;html=1;" parent="1" target="BwdnBw9OFmGujha4lRiC-4" edge="1">
          <mxGeometry relative="1" as="geometry">
            <mxPoint x="237" y="250" as="sourcePoint" />
          </mxGeometry>
        </mxCell>
        <mxCell id="BwdnBw9OFmGujha4lRiC-9" style="edgeStyle=orthogonalEdgeStyle;rounded=0;orthogonalLoop=1;jettySize=auto;html=1;" parent="1" source="BwdnBw9OFmGujha4lRiC-2" edge="1">
          <mxGeometry relative="1" as="geometry">
            <mxPoint x="204" y="280" as="targetPoint" />
          </mxGeometry>
        </mxCell>
        <mxCell id="BwdnBw9OFmGujha4lRiC-2" value="" style="image;aspect=fixed;html=1;points=[];align=center;fontSize=12;image=img/lib/azure2/storage/Storage_Accounts.svg;" parent="1" vertex="1">
          <mxGeometry x="171" y="414" width="65" height="52" as="geometry" />
        </mxCell>
        <mxCell id="BwdnBw9OFmGujha4lRiC-3" value="" style="sketch=0;aspect=fixed;pointerEvents=1;shadow=0;dashed=0;html=1;strokeColor=none;labelPosition=center;verticalLabelPosition=bottom;verticalAlign=top;align=center;fillColor=#00188D;shape=mxgraph.azure.code_file" parent="1" vertex="1">
          <mxGeometry x="210" y="460" width="47" height="50" as="geometry" />
        </mxCell>
        <mxCell id="BwdnBw9OFmGujha4lRiC-13" style="edgeStyle=orthogonalEdgeStyle;rounded=0;orthogonalLoop=1;jettySize=auto;html=1;" parent="1" source="BwdnBw9OFmGujha4lRiC-4" target="BwdnBw9OFmGujha4lRiC-5" edge="1">
          <mxGeometry relative="1" as="geometry" />
        </mxCell>
        <mxCell id="BwdnBw9OFmGujha4lRiC-4" value="" style="image;aspect=fixed;html=1;points=[];align=center;fontSize=12;image=img/lib/azure2/iot/Logic_Apps.svg;" parent="1" vertex="1">
          <mxGeometry x="348" y="224" width="67" height="52" as="geometry" />
        </mxCell>
        <mxCell id="BwdnBw9OFmGujha4lRiC-5" value="" style="image;aspect=fixed;html=1;points=[];align=center;fontSize=12;image=img/lib/azure2/integration/Service_Bus.svg;" parent="1" vertex="1">
          <mxGeometry x="531" y="220" width="68" height="60" as="geometry" />
        </mxCell>
        <mxCell id="BwdnBw9OFmGujha4lRiC-15" style="edgeStyle=orthogonalEdgeStyle;rounded=0;orthogonalLoop=1;jettySize=auto;html=1;" parent="1" source="BwdnBw9OFmGujha4lRiC-7" target="BwdnBw9OFmGujha4lRiC-8" edge="1">
          <mxGeometry relative="1" as="geometry" />
        </mxCell>
        <mxCell id="BwdnBw9OFmGujha4lRiC-7" value="" style="image;aspect=fixed;html=1;points=[];align=center;fontSize=12;image=img/lib/azure2/iot/Logic_Apps.svg;" parent="1" vertex="1">
          <mxGeometry x="674" y="377" width="67" height="52" as="geometry" />
        </mxCell>
        <mxCell id="BwdnBw9OFmGujha4lRiC-8" value="" style="image;sketch=0;aspect=fixed;html=1;points=[];align=center;fontSize=12;image=img/lib/mscae/CosmosDB.svg;" parent="1" vertex="1">
          <mxGeometry x="682.5" y="532" width="50" height="50" as="geometry" />
        </mxCell>
        <mxCell id="BwdnBw9OFmGujha4lRiC-11" value="" style="verticalLabelPosition=bottom;html=1;verticalAlign=top;align=center;strokeColor=none;fillColor=#00BEF2;shape=mxgraph.azure.user;" parent="1" vertex="1">
          <mxGeometry x="30" y="416" width="47.5" height="50" as="geometry" />
        </mxCell>
        <mxCell id="BwdnBw9OFmGujha4lRiC-12" style="edgeStyle=orthogonalEdgeStyle;rounded=0;orthogonalLoop=1;jettySize=auto;html=1;entryX=0.004;entryY=0.538;entryDx=0;entryDy=0;entryPerimeter=0;" parent="1" source="BwdnBw9OFmGujha4lRiC-11" target="BwdnBw9OFmGujha4lRiC-2" edge="1">
          <mxGeometry relative="1" as="geometry" />
        </mxCell>
        <mxCell id="BwdnBw9OFmGujha4lRiC-14" style="edgeStyle=orthogonalEdgeStyle;rounded=0;orthogonalLoop=1;jettySize=auto;html=1;entryX=0.502;entryY=0.017;entryDx=0;entryDy=0;entryPerimeter=0;" parent="1" source="BwdnBw9OFmGujha4lRiC-5" target="BwdnBw9OFmGujha4lRiC-7" edge="1">
          <mxGeometry relative="1" as="geometry">
            <mxPoint x="720" y="330" as="targetPoint" />
            <Array as="points">
              <mxPoint x="708" y="250" />
              <mxPoint x="708" y="350" />
            </Array>
          </mxGeometry>
        </mxCell>
        <mxCell id="BwdnBw9OFmGujha4lRiC-16" style="edgeStyle=orthogonalEdgeStyle;rounded=0;orthogonalLoop=1;jettySize=auto;html=1;exitX=0.526;exitY=1.013;exitDx=0;exitDy=0;exitPerimeter=0;" parent="1" source="BwdnBw9OFmGujha4lRiC-4" target="BwdnBw9OFmGujha4lRiC-2" edge="1">
          <mxGeometry relative="1" as="geometry">
            <Array as="points">
              <mxPoint x="383" y="440" />
            </Array>
            <mxPoint x="345" y="250.0526315789475" as="sourcePoint" />
            <mxPoint x="360" y="470" as="targetPoint" />
          </mxGeometry>
        </mxCell>
        <mxCell id="BwdnBw9OFmGujha4lRiC-17" value="1" style="ellipse;whiteSpace=wrap;html=1;aspect=fixed;" parent="1" vertex="1">
          <mxGeometry x="101" y="423" width="40" height="40" as="geometry" />
        </mxCell>
        <mxCell id="BwdnBw9OFmGujha4lRiC-18" value="2" style="ellipse;whiteSpace=wrap;html=1;aspect=fixed;" parent="1" vertex="1">
          <mxGeometry x="183.5" y="340" width="40" height="40" as="geometry" />
        </mxCell>
        <mxCell id="BwdnBw9OFmGujha4lRiC-19" value="3" style="ellipse;whiteSpace=wrap;html=1;aspect=fixed;" parent="1" vertex="1">
          <mxGeometry x="271" y="228" width="40" height="40" as="geometry" />
        </mxCell>
        <mxCell id="BwdnBw9OFmGujha4lRiC-20" value="4" style="ellipse;whiteSpace=wrap;html=1;aspect=fixed;" parent="1" vertex="1">
          <mxGeometry x="364" y="337" width="40" height="40" as="geometry" />
        </mxCell>
        <mxCell id="BwdnBw9OFmGujha4lRiC-21" value="5" style="ellipse;whiteSpace=wrap;html=1;aspect=fixed;" parent="1" vertex="1">
          <mxGeometry x="450" y="229" width="40" height="40" as="geometry" />
        </mxCell>
        <mxCell id="BwdnBw9OFmGujha4lRiC-22" value="8" style="ellipse;whiteSpace=wrap;html=1;aspect=fixed;" parent="1" vertex="1">
          <mxGeometry x="687.5" y="307" width="40" height="40" as="geometry" />
        </mxCell>
        <mxCell id="BwdnBw9OFmGujha4lRiC-23" value="9" style="ellipse;whiteSpace=wrap;html=1;aspect=fixed;" parent="1" vertex="1">
          <mxGeometry x="688.5" y="463" width="39" height="40" as="geometry" />
        </mxCell>
        <mxCell id="BwdnBw9OFmGujha4lRiC-24" value="" style="image;aspect=fixed;html=1;points=[];align=center;fontSize=12;image=img/lib/azure2/iot/Logic_Apps.svg;" parent="1" vertex="1">
          <mxGeometry x="531" y="380" width="67" height="52" as="geometry" />
        </mxCell>
        <mxCell id="BwdnBw9OFmGujha4lRiC-25" style="edgeStyle=orthogonalEdgeStyle;rounded=0;orthogonalLoop=1;jettySize=auto;html=1;strokeColor=#FF0000;exitX=0.486;exitY=1.025;exitDx=0;exitDy=0;exitPerimeter=0;entryX=0.481;entryY=-0.005;entryDx=0;entryDy=0;entryPerimeter=0;" parent="1" source="BwdnBw9OFmGujha4lRiC-5" target="BwdnBw9OFmGujha4lRiC-24" edge="1">
          <mxGeometry relative="1" as="geometry">
            <Array as="points">
              <mxPoint x="564" y="370" />
              <mxPoint x="563" y="370" />
              <mxPoint x="563" y="370" />
            </Array>
            <mxPoint x="564" y="380" as="targetPoint" />
          </mxGeometry>
        </mxCell>
        <mxCell id="uw8Xf6sZrzRBvi6UpFgc-1" value="" style="image;aspect=fixed;html=1;points=[];align=center;fontSize=12;image=img/lib/azure2/storage/Storage_Accounts.svg;" parent="1" vertex="1">
          <mxGeometry x="534" y="530" width="65" height="52" as="geometry" />
        </mxCell>
        <mxCell id="uw8Xf6sZrzRBvi6UpFgc-2" style="edgeStyle=orthogonalEdgeStyle;rounded=0;orthogonalLoop=1;jettySize=auto;html=1;exitX=0.482;exitY=0.924;exitDx=0;exitDy=0;exitPerimeter=0;entryX=0.458;entryY=0.004;entryDx=0;entryDy=0;entryPerimeter=0;" parent="1" source="uw8Xf6sZrzRBvi6UpFgc-3" target="uw8Xf6sZrzRBvi6UpFgc-1" edge="1">
          <mxGeometry relative="1" as="geometry">
            <mxPoint x="927" y="376" as="sourcePoint" />
            <mxPoint x="566" y="490" as="targetPoint" />
            <Array as="points">
              <mxPoint x="563" y="502" />
              <mxPoint x="563" y="430" />
              <mxPoint x="564" y="430" />
            </Array>
          </mxGeometry>
        </mxCell>
        <mxCell id="uw8Xf6sZrzRBvi6UpFgc-4" value="6" style="ellipse;whiteSpace=wrap;html=1;aspect=fixed;" parent="1" vertex="1">
          <mxGeometry x="544.5" y="307" width="40" height="40" as="geometry" />
        </mxCell>
        <mxCell id="uw8Xf6sZrzRBvi6UpFgc-5" value="" style="image;aspect=fixed;html=1;points=[];align=center;fontSize=12;image=img/lib/azure2/integration/Event_Grid_Topics.svg;" parent="1" vertex="1">
          <mxGeometry x="170" y="220" width="67" height="60" as="geometry" />
        </mxCell>
        <mxCell id="uw8Xf6sZrzRBvi6UpFgc-3" value="7" style="ellipse;whiteSpace=wrap;html=1;aspect=fixed;" parent="1" vertex="1">
          <mxGeometry x="544" y="463" width="40" height="40" as="geometry" />
        </mxCell>
        <mxCell id="uw8Xf6sZrzRBvi6UpFgc-7" value="" style="image;aspect=fixed;html=1;points=[];align=center;fontSize=12;image=img/lib/azure2/compute/Function_Apps.svg;" parent="1" vertex="1">
          <mxGeometry x="820" y="527" width="65.73" height="58" as="geometry" />
        </mxCell>
        <mxCell id="uw8Xf6sZrzRBvi6UpFgc-9" value="" style="image;aspect=fixed;html=1;points=[];align=center;fontSize=12;image=img/lib/azure2/compute/Function_Apps.svg;" parent="1" vertex="1">
          <mxGeometry x="1096" y="529" width="65.73" height="58" as="geometry" />
        </mxCell>
        <mxCell id="uw8Xf6sZrzRBvi6UpFgc-10" value="" style="image;aspect=fixed;html=1;points=[];align=center;fontSize=12;image=img/lib/azure2/app_services/API_Management_Services.svg;" parent="1" vertex="1">
          <mxGeometry x="1096" y="377" width="65" height="60" as="geometry" />
        </mxCell>
        <mxCell id="uw8Xf6sZrzRBvi6UpFgc-11" style="edgeStyle=orthogonalEdgeStyle;rounded=0;orthogonalLoop=1;jettySize=auto;html=1;entryX=-0.014;entryY=0.475;entryDx=0;entryDy=0;entryPerimeter=0;exitX=0.984;exitY=0.431;exitDx=0;exitDy=0;exitPerimeter=0;" parent="1" source="BwdnBw9OFmGujha4lRiC-8" target="uw8Xf6sZrzRBvi6UpFgc-7" edge="1">
          <mxGeometry relative="1" as="geometry">
            <mxPoint x="717" y="439" as="sourcePoint" />
            <mxPoint x="717" y="542" as="targetPoint" />
          </mxGeometry>
        </mxCell>
        <mxCell id="uw8Xf6sZrzRBvi6UpFgc-12" style="edgeStyle=orthogonalEdgeStyle;rounded=0;orthogonalLoop=1;jettySize=auto;html=1;entryX=0.015;entryY=0.479;entryDx=0;entryDy=0;entryPerimeter=0;" parent="1" source="uw8Xf6sZrzRBvi6UpFgc-7" target="uw8Xf6sZrzRBvi6UpFgc-9" edge="1">
          <mxGeometry relative="1" as="geometry">
            <mxPoint x="885.73" y="556.26" as="sourcePoint" />
            <mxPoint x="970" y="560" as="targetPoint" />
          </mxGeometry>
        </mxCell>
        <mxCell id="uw8Xf6sZrzRBvi6UpFgc-13" style="edgeStyle=orthogonalEdgeStyle;rounded=0;orthogonalLoop=1;jettySize=auto;html=1;exitX=0.521;exitY=-0.006;exitDx=0;exitDy=0;exitPerimeter=0;entryX=0.516;entryY=0.966;entryDx=0;entryDy=0;entryPerimeter=0;" parent="1" source="uw8Xf6sZrzRBvi6UpFgc-9" target="uw8Xf6sZrzRBvi6UpFgc-10" edge="1">
          <mxGeometry relative="1" as="geometry">
            <mxPoint x="996" y="567" as="sourcePoint" />
            <mxPoint x="1100" y="471" as="targetPoint" />
            <Array as="points">
              <mxPoint x="1130" y="470" />
              <mxPoint x="1129" y="470" />
            </Array>
          </mxGeometry>
        </mxCell>
        <mxCell id="uw8Xf6sZrzRBvi6UpFgc-14" value="10" style="ellipse;whiteSpace=wrap;html=1;aspect=fixed;" parent="1" vertex="1">
          <mxGeometry x="757" y="534" width="39" height="40" as="geometry" />
        </mxCell>
        <mxCell id="uw8Xf6sZrzRBvi6UpFgc-15" value="11" style="ellipse;whiteSpace=wrap;html=1;aspect=fixed;" parent="1" vertex="1">
          <mxGeometry x="904" y="535" width="39" height="40" as="geometry" />
        </mxCell>
        <mxCell id="uw8Xf6sZrzRBvi6UpFgc-16" value="13" style="ellipse;whiteSpace=wrap;html=1;aspect=fixed;" parent="1" vertex="1">
          <mxGeometry x="1111" y="470" width="39" height="40" as="geometry" />
        </mxCell>
        <mxCell id="uw8Xf6sZrzRBvi6UpFgc-17" value="" style="image;aspect=fixed;html=1;points=[];align=center;fontSize=12;image=img/lib/azure2/integration/Service_Bus.svg;" parent="1" vertex="1">
          <mxGeometry x="954" y="531" width="56.67" height="50" as="geometry" />
        </mxCell>
        <mxCell id="uw8Xf6sZrzRBvi6UpFgc-18" value="12" style="ellipse;whiteSpace=wrap;html=1;aspect=fixed;" parent="1" vertex="1">
          <mxGeometry x="1026" y="536" width="39" height="40" as="geometry" />
        </mxCell>
      </root>
    </mxGraphModel>
  </diagram>
</mxfile>
